<svg width="307" height="54" viewBox="0 0 307 54" fill="none" xmlns="http://www.w3.org/2000/svg">
<path d="M53.8114 0H0V53.8512H53.8114V0Z" fill="#B7BFC9"/>
<path d="M17.936 8.97559H8.96777V17.9504H17.936H26.9042V8.97559H17.936Z" fill="#4E647E"/>
<path d="M35.8725 8.97559H26.9043V17.9504H35.8725H44.8407V8.97559H35.8725Z" fill="#FAEDC0"/>
<path d="M17.936 17.9492H8.96777V26.9241H17.936H26.9042V17.9492H17.936Z" fill="#6E7B94"/>
<path d="M17.936 26.9258H8.96777V35.9006H17.936V26.9258Z" fill="#DDC69D"/>
<path d="M26.9038 26.9258H17.9355V35.9006H26.9038V26.9258Z" fill="#4E647E"/>
<path d="M35.8725 26.9258H26.9043V35.9006H35.8725V26.9258Z" fill="#DDC69D"/>
<path d="M17.936 35.8994H8.96777V44.8743H17.936H26.9042V35.8994H17.936Z" fill="#E9DBAA"/>
<path d="M35.8725 17.9492H26.9043V26.9241H35.8725V35.8989H26.9043V44.8738H35.8725H44.8407V35.8989V26.9241V17.9492H35.8725Z" fill="#4E647E"/>
<path d="M44.8398 26.9258V35.9006V44.8755H53.8081V35.9006V26.9258H44.8398Z" fill="#FAEDC0"/>
<path d="M44.8407 44.875H35.8725H26.9043V53.8498H35.8725H44.8407H53.809V44.875H44.8407Z" fill="#DDC69D"/>
<path d="M67.6064 18.7805H71.2425V19.7186C71.2425 22.1061 72.5492 22.9026 73.9123 22.9026C75.2754 22.9026 76.497 22.0773 76.497 19.889V8.88874H71.2999V5.73242H80.1617V19.9454C80.1617 24.3519 76.9812 26.2559 73.8548 26.2559C70.7285 26.2559 67.6064 24.2955 67.6064 19.9465V18.7805Z" fill="white"/>
<path d="M94.9332 20.7409H87.8602L86.1555 25.9152H82.3779L89.4797 5.73242H93.3147L100.417 25.9152H96.6379L94.9343 20.7409H94.9332ZM91.3823 9.2295C91.3823 9.2295 90.929 11.2198 90.531 12.3571L88.7412 17.7571H94.0245L92.2336 12.3571C91.8654 11.2198 91.4387 9.2295 91.4387 9.2295H91.3813H91.3823Z" fill="white"/>
<path d="M104.025 5.73242H107.946L111.894 15.7093C112.348 16.9041 112.916 18.6665 112.916 18.6665H112.973C112.973 18.6665 113.513 16.9041 113.967 15.7093L117.916 5.73242H121.835L123.454 25.9152H119.818L118.966 14.6295C118.88 13.2931 118.938 11.502 118.938 11.502H118.88C118.88 11.502 118.283 13.4635 117.801 14.6295L114.534 22.4468H111.325L108.087 14.6295C107.605 13.4635 106.979 11.4732 106.979 11.4732H106.922C106.922 11.4732 106.979 13.292 106.893 14.6295L106.042 25.9152H102.377L104.024 5.73242H104.025Z" fill="white"/>
<path d="M127.943 5.73242H140.017V8.88874H131.608V14.1759H138.397V17.3301H131.608V22.7589H140.47V25.9152H127.943V5.73242Z" fill="white"/>
<path d="M144.734 20.7417C144.734 20.7417 146.921 22.8747 149.761 22.8747C151.295 22.8747 152.687 22.0782 152.687 20.4297C152.687 16.8198 143.172 17.4459 143.172 11.2494C143.172 7.89497 146.069 5.39355 149.932 5.39355C153.795 5.39355 155.953 7.5542 155.953 7.5542L154.362 10.5391C154.362 10.5391 152.431 8.77563 149.903 8.77563C148.199 8.77563 146.863 9.7713 146.863 11.1919C146.863 14.7731 156.351 13.8924 156.351 20.3456C156.351 23.5573 153.909 26.2578 149.704 26.2578C145.217 26.2578 142.745 23.4998 142.745 23.4998L144.734 20.7417Z" fill="white"/>
<path d="M167.944 5.73242H171.863L175.811 15.7093C176.267 16.9041 176.835 18.6665 176.835 18.6665H176.89C176.89 18.6665 177.431 16.9041 177.885 15.7093L181.834 5.73242H185.753L187.372 25.9152H183.735L182.884 14.6295C182.798 13.2931 182.855 11.502 182.855 11.502H182.798C182.798 11.502 182.202 13.4635 181.719 14.6295L178.452 22.4468H175.243L172.005 14.6295C171.521 13.4635 170.897 11.4732 170.897 11.4732H170.84C170.84 11.4732 170.897 13.292 170.811 14.6295L169.96 25.9152H166.295L167.942 5.73242H167.944Z" fill="white"/>
<path d="M200.896 5.39258C206.833 5.39258 211.321 9.91195 211.321 15.6826C211.321 21.4532 206.833 26.2569 200.896 26.2569C194.958 26.2569 190.472 21.6246 190.472 15.6826C190.472 9.7405 194.959 5.39258 200.896 5.39258ZM200.896 22.9035C204.589 22.9035 207.543 19.8324 207.543 15.6826C207.543 11.5327 204.588 8.7459 200.896 8.7459C197.203 8.7459 194.249 11.7031 194.249 15.6826C194.249 19.662 197.202 22.9035 200.896 22.9035Z" fill="white"/>
<path d="M215.498 20.7417C215.498 20.7417 217.684 22.8747 220.525 22.8747C222.059 22.8747 223.451 22.0782 223.451 20.4297C223.451 16.8198 213.935 17.4459 213.935 11.2494C213.935 7.89497 216.832 5.39355 220.695 5.39355C224.558 5.39355 226.717 7.5542 226.717 7.5542L225.126 10.5391C225.126 10.5391 223.193 8.77563 220.665 8.77563C218.96 8.77563 217.626 9.7713 217.626 11.1919C217.626 14.7731 227.113 13.8924 227.113 20.3456C227.113 23.5573 224.67 26.2578 220.466 26.2578C215.979 26.2578 213.507 23.4998 213.507 23.4998L215.497 20.7417H215.498Z" fill="white"/>
<path d="M231.237 20.7417C231.237 20.7417 233.424 22.8747 236.264 22.8747C237.798 22.8747 239.19 22.0782 239.19 20.4297C239.19 16.8198 229.674 17.4459 229.674 11.2494C229.674 7.89497 232.571 5.39355 236.434 5.39355C240.297 5.39355 242.456 7.5542 242.456 7.5542L240.865 10.5391C240.865 10.5391 238.933 8.77563 236.406 8.77563C234.702 8.77563 233.366 9.7713 233.366 11.1919C233.366 14.7731 242.854 13.8924 242.854 20.3456C242.854 23.5573 240.412 26.2578 236.206 26.2578C231.719 26.2578 229.248 23.4998 229.248 23.4998L231.237 20.7417Z" fill="white"/>
<path d="M247.542 5.73242H251.463L255.411 15.7093C255.864 16.9041 256.432 18.6665 256.432 18.6665H256.49C256.49 18.6665 257.029 16.9041 257.484 15.7093L261.433 5.73242H265.352L266.97 25.9152H263.334L262.483 14.6295C262.397 13.2931 262.454 11.502 262.454 11.502H262.397C262.397 11.502 261.8 13.4635 261.318 14.6295L258.051 22.4468H254.842L251.604 14.6295C251.121 13.4635 250.496 11.4732 250.496 11.4732H250.438C250.438 11.4732 250.496 13.292 250.41 14.6295L249.558 25.9152H245.894L247.541 5.73242H247.542Z" fill="white"/>
<path d="M281.487 20.7409H274.414L272.709 25.9152H268.932L276.033 5.73242H279.868L286.97 25.9152H283.193L281.488 20.7409H281.487ZM277.937 9.2295C277.937 9.2295 277.482 11.2198 277.084 12.3571L275.294 17.7571H280.577L278.787 12.3571C278.418 11.2198 277.992 9.2295 277.992 9.2295H277.935H277.937Z" fill="white"/>
<path d="M289.557 5.73242H293.221L300.863 17.3876C301.629 18.5526 302.539 20.5151 302.539 20.5151H302.594C302.594 20.5151 302.395 18.5813 302.395 17.3876V5.73242H306.031V25.9152H302.395L294.754 14.2888C293.987 13.1227 293.079 11.1612 293.079 11.1612H293.021C293.021 11.1612 293.22 13.094 293.22 14.2888V25.9152H289.556V5.73242H289.557Z" fill="white"/>
<path d="M96.4348 44.4483H85.1426V43.6709H96.4348V44.4483Z" fill="#DDC69D"/>
<path d="M108.633 34.8135L109.965 46.4654L118.358 34.8135H121.888V35.2075C121.119 35.2575 120.668 35.3076 120.533 35.3576C120.298 35.4492 120.084 35.6345 119.887 35.9124C119.692 36.1904 119.481 36.7228 119.253 37.513L116.576 46.6912C116.419 47.2236 116.34 47.6443 116.34 47.9499C116.34 48.2278 116.436 48.4365 116.628 48.5792C116.898 48.7858 117.325 48.8891 117.908 48.8891H118.164L118.068 49.2842H111.979L112.086 48.8891H112.373C112.914 48.8891 113.327 48.8114 113.61 48.6538C113.83 48.5409 114.028 48.3258 114.203 48.0095C114.376 47.6932 114.619 46.9894 114.933 45.9021L117.32 37.513L108.886 49.2842H108.46L107.105 37.513L104.525 46.4665C104.305 47.229 104.194 47.7401 104.194 48.0031C104.194 48.2662 104.291 48.4674 104.483 48.6059C104.676 48.7443 105.14 48.8391 105.88 48.888L105.763 49.2831H100.996L101.113 48.888H101.4C102.103 48.888 102.612 48.7102 102.925 48.3556C103.153 48.099 103.39 47.5452 103.639 46.6912L106.784 35.9029C106.551 35.6611 106.326 35.4961 106.112 35.4119C105.899 35.3257 105.506 35.2586 104.929 35.2085L105.036 34.8145H108.629L108.633 34.8135Z" fill="#DDC69D"/>
<path d="M130.152 39.625L128.074 46.8609L127.839 47.8321C127.818 47.9236 127.806 48.0024 127.806 48.0674C127.806 48.1803 127.842 48.2804 127.914 48.3656C127.971 48.4305 128.041 48.4614 128.126 48.4614C128.218 48.4614 128.339 48.406 128.488 48.291C128.766 48.0844 129.135 47.6574 129.598 47.01L129.96 47.2666C129.469 48.0067 128.964 48.57 128.446 48.9587C127.927 49.3453 127.446 49.5401 127.006 49.5401C126.7 49.5401 126.472 49.4624 126.318 49.3112C126.165 49.1579 126.09 48.9364 126.09 48.6435C126.09 48.2953 126.167 47.8353 126.325 47.2666L126.548 46.4658C125.618 47.683 124.761 48.5328 123.979 49.0173C123.416 49.3655 122.867 49.5401 122.325 49.5401C121.783 49.5401 121.359 49.325 120.982 48.8938C120.604 48.4635 120.417 47.8715 120.417 47.1175C120.417 45.9856 120.756 44.7929 121.434 43.5374C122.113 42.2808 122.976 41.2766 124.021 40.5216C124.838 39.9242 125.61 39.625 126.334 39.625C126.769 39.625 127.129 39.74 127.417 39.9679C127.704 40.1958 127.923 40.5727 128.073 41.0977L128.457 39.8816L130.152 39.625ZM126.356 40.1809C125.9 40.1809 125.417 40.3939 124.905 40.8209C124.18 41.4257 123.536 42.3223 122.97 43.5097C122.405 44.697 122.123 45.7715 122.123 46.7331C122.123 47.2155 122.243 47.5989 122.485 47.8789C122.726 48.1611 123.003 48.3017 123.317 48.3017C124.091 48.3017 124.934 47.7288 125.843 46.583C127.059 45.0612 127.667 43.4991 127.667 41.8985C127.667 41.2937 127.55 40.8571 127.314 40.5866C127.081 40.3161 126.76 40.1809 126.356 40.1809Z" fill="#DDC69D"/>
<path d="M137.073 34.1076L134.046 44.5978L135.261 43.5616C136.591 42.4382 137.454 41.6044 137.852 41.0645C137.981 40.8866 138.044 40.7525 138.044 40.6588C138.044 40.5938 138.024 40.5342 137.981 40.4767C137.939 40.4213 137.856 40.3734 137.731 40.3382C137.607 40.3042 137.387 40.285 137.075 40.285H136.702L136.819 39.8793H141.479L141.371 40.285C140.839 40.3137 140.378 40.3968 139.991 40.5352C139.603 40.6737 139.228 40.8792 138.866 41.1497C138.148 41.6821 137.676 42.0516 137.448 42.2582L136.532 43.0686C136.688 43.5819 136.88 44.2964 137.108 45.2143C137.492 46.7371 137.75 47.6391 137.886 47.9245C138.021 48.2099 138.16 48.3515 138.301 48.3515C138.423 48.3515 138.565 48.2919 138.728 48.1694C139.097 47.9 139.492 47.4687 139.911 46.8787L140.285 47.145C139.51 48.1204 138.916 48.7625 138.505 49.0714C138.093 49.3812 137.716 49.5356 137.374 49.5356C137.075 49.5356 136.844 49.4185 136.681 49.1832C136.396 48.7636 135.923 47.1088 135.262 44.2208L133.802 45.4901L132.703 49.279H131.04L134.581 37.1031L134.879 36.0691C134.915 35.8913 134.933 35.7337 134.933 35.5995C134.933 35.4291 134.867 35.2875 134.737 35.1725C134.605 35.0596 134.414 35.0021 134.165 35.0021C134 35.0021 133.742 35.0383 133.386 35.1086V34.7359L137.076 34.1055L137.073 34.1076Z" fill="#DDC69D"/>
<path d="M145.541 39.6248L143.428 47.1056C143.286 47.6114 143.216 47.9138 143.216 48.0139C143.216 48.1268 143.249 48.2205 143.316 48.2908C143.383 48.3622 143.464 48.3984 143.557 48.3984C143.663 48.3984 143.792 48.3409 143.941 48.228C144.346 47.9075 144.754 47.4517 145.168 46.8617L145.541 47.1067C145.057 47.8467 144.488 48.4686 143.835 48.9745C143.351 49.3514 142.889 49.5399 142.448 49.5399C142.157 49.5399 141.918 49.4526 141.734 49.278C141.549 49.1044 141.456 48.885 141.456 48.622C141.456 48.359 141.544 47.9213 141.722 47.3101L143.11 42.5298C143.337 41.746 143.45 41.2562 143.45 41.057C143.45 40.8994 143.396 40.7717 143.285 40.6716C143.175 40.5725 143.023 40.5225 142.832 40.5225C142.676 40.5225 142.352 40.5608 141.861 40.6396V40.2243L145.542 39.6258L145.541 39.6248ZM145.401 35.3887C145.7 35.3887 145.952 35.492 146.159 35.6986C146.366 35.9051 146.469 36.1564 146.469 36.4567C146.469 36.757 146.363 36.9998 146.154 37.2086C145.943 37.4194 145.693 37.5238 145.401 37.5238C145.108 37.5238 144.86 37.4194 144.649 37.2086C144.441 36.9998 144.336 36.7485 144.336 36.4567C144.336 36.165 144.439 35.9051 144.645 35.6986C144.852 35.492 145.103 35.3887 145.401 35.3887Z" fill="#DDC69D"/>
<path d="M151.404 39.6252L149.987 44.481C151.315 42.4961 152.335 41.1906 153.042 40.5644C153.75 39.9382 154.431 39.6252 155.083 39.6252C155.44 39.6252 155.733 39.7423 155.963 39.9777C156.194 40.213 156.31 40.5186 156.31 40.8956C156.31 41.3226 156.207 41.8912 156 42.6026L154.699 47.0953C154.55 47.6139 154.475 47.9302 154.475 48.0452C154.475 48.1443 154.504 48.2284 154.56 48.2955C154.617 48.3626 154.677 48.3977 154.741 48.3977C154.828 48.3977 154.931 48.3508 155.051 48.2593C155.428 47.96 155.84 47.5053 156.288 46.893L156.619 47.0964C155.958 48.042 155.332 48.7182 154.741 49.1229C154.33 49.4008 153.96 49.5392 153.632 49.5392C153.37 49.5392 153.159 49.4594 153.003 49.2986C152.845 49.1378 152.768 48.9237 152.768 48.6522C152.768 48.3114 152.888 47.7236 153.129 46.8919L154.366 42.6026C154.522 42.068 154.601 41.6527 154.601 41.3535C154.601 41.2119 154.555 41.0958 154.463 41.0063C154.371 40.9179 154.256 40.8732 154.122 40.8732C153.923 40.8732 153.684 40.9595 153.408 41.1299C152.881 41.4493 152.334 41.9775 151.766 42.7144C151.197 43.4502 150.597 44.3916 149.964 45.5363C149.628 46.1412 149.353 46.8025 149.132 47.5213L148.597 49.2815H146.998L148.939 42.6015C149.166 41.7975 149.279 41.3141 149.279 41.1501C149.279 40.9861 149.217 40.8562 149.093 40.739C148.968 40.6219 148.812 40.5633 148.629 40.5633C148.543 40.5633 148.394 40.5772 148.181 40.6059L147.776 40.6688L147.711 40.2843L151.4 39.623L151.404 39.6252Z" fill="#DDC69D"/>
<path d="M168.882 40.2863L168.573 41.397H166.793C166.927 41.7814 166.996 42.1403 166.996 42.4746C166.996 43.4139 166.597 44.2498 165.801 44.9824C164.997 45.714 163.896 46.1208 162.496 46.1985C161.741 46.4264 161.176 46.6969 160.8 47.0089C160.658 47.1239 160.587 47.2411 160.587 47.3614C160.587 47.5051 160.652 47.634 160.778 47.7511C160.907 47.8683 161.23 47.9875 161.749 48.1089L163.818 48.5892C164.962 48.8597 165.719 49.1791 166.089 49.5487C166.453 49.9256 166.633 50.359 166.633 50.851C166.633 51.4346 166.418 51.9681 165.989 52.4515C165.558 52.9361 164.93 53.3152 164.101 53.5888C163.273 53.8625 162.358 53.9999 161.356 53.9999C160.474 53.9999 159.672 53.8934 158.946 53.6847C158.22 53.4738 157.702 53.1916 157.39 52.837C157.076 52.4803 156.921 52.115 156.921 51.737C156.921 51.4314 157.021 51.114 157.224 50.7829C157.427 50.4517 157.681 50.1801 157.987 49.9661C158.179 49.8298 158.722 49.5103 159.617 49.0045C159.291 48.75 159.128 48.4678 159.128 48.1622C159.128 47.8768 159.271 47.5744 159.56 47.2549C159.846 46.9344 160.456 46.5819 161.388 46.1975C160.607 46.0484 159.987 45.7204 159.527 45.2167C159.069 44.7109 158.839 44.1497 158.839 43.531C158.839 42.5215 159.282 41.6174 160.166 40.8209C161.051 40.0243 162.231 39.625 163.702 39.625C164.234 39.625 164.673 39.6793 165.013 39.7858C165.354 39.8934 165.685 40.0595 166.004 40.2874H168.885L168.882 40.2863ZM160.075 49.2824C159.498 49.5465 159.063 49.8841 158.768 50.2962C158.473 50.7083 158.326 51.114 158.326 51.5123C158.326 51.9819 158.538 52.3685 158.965 52.6752C159.576 53.116 160.473 53.3364 161.652 53.3364C162.669 53.3364 163.537 53.1629 164.26 52.8179C164.981 52.4739 165.342 52.0266 165.342 51.4804C165.342 51.2024 165.209 50.9394 164.943 50.6891C164.675 50.44 164.159 50.2376 163.392 50.0822C162.971 49.9959 161.866 49.7297 160.075 49.2814V49.2824ZM165.183 41.9624C165.183 41.3938 165.024 40.9455 164.709 40.6175C164.391 40.2906 163.978 40.1266 163.466 40.1266C162.662 40.1266 162.001 40.5302 161.476 41.3384C160.954 42.1466 160.693 42.9868 160.693 43.8622C160.693 44.4095 160.86 44.8578 161.194 45.2061C161.527 45.5553 161.934 45.7289 162.41 45.7289C162.786 45.7289 163.151 45.6256 163.503 45.419C163.856 45.2125 164.151 44.9292 164.394 44.565C164.635 44.2029 164.826 43.7397 164.97 43.1785C165.111 42.6173 165.183 42.2116 165.183 41.9624Z" fill="#DDC69D"/>
<path d="M177.115 35.2075L177.264 34.8135H182.424C183.292 34.8135 184.065 34.9477 184.745 35.2192C185.424 35.4897 185.932 35.8666 186.27 36.349C186.607 36.8336 186.776 37.3458 186.776 37.8857C186.776 38.7184 186.476 39.4702 185.875 40.1432C185.274 40.8152 184.295 41.3103 182.938 41.6319C183.813 41.9588 184.456 42.3923 184.867 42.9343C185.279 43.4742 185.486 44.0684 185.486 44.7158C185.486 45.4336 185.301 46.1215 184.931 46.7742C184.562 47.4292 184.086 47.9371 183.508 48.3013C182.93 48.6633 182.231 48.9306 181.413 49.101C180.83 49.2224 179.92 49.2831 178.684 49.2831H173.385L173.522 48.888C174.077 48.8742 174.454 48.821 174.653 48.7294C174.936 48.608 175.139 48.4482 175.26 48.248C175.431 47.9786 175.658 47.3599 175.943 46.392L178.535 37.6312C178.754 36.8921 178.864 36.3725 178.864 36.0743C178.864 35.8102 178.767 35.6026 178.572 35.4492C178.376 35.2959 178.005 35.2203 177.457 35.2203C177.336 35.2203 177.222 35.216 177.117 35.2085L177.115 35.2075ZM177.178 48.3439C177.947 48.444 178.547 48.494 178.981 48.494C180.091 48.494 181.074 48.1586 181.929 47.4909C182.785 46.8222 183.215 45.9149 183.215 44.7691C183.215 43.8937 182.949 43.2101 182.42 42.7202C181.89 42.2293 181.036 41.9844 179.854 41.9844C179.627 41.9844 179.349 41.994 179.022 42.0163L177.177 48.3439H177.178ZM179.28 41.2156C179.743 41.2294 180.076 41.2369 180.282 41.2369C181.761 41.2369 182.861 40.9163 183.583 40.271C184.305 39.6278 184.665 38.8217 184.665 37.8548C184.665 37.1211 184.445 36.5514 184.004 36.1414C183.564 35.7335 182.859 35.528 181.893 35.528C181.637 35.528 181.31 35.5706 180.911 35.6558L179.281 41.2156H179.28Z" fill="#DDC69D"/>
<path d="M188.364 40.2235L192.042 39.625L190.507 44.8121C191.751 42.6844 192.882 41.1978 193.898 40.3513C194.474 39.8667 194.943 39.625 195.305 39.625C195.54 39.625 195.724 39.6953 195.86 39.8337C195.994 39.9711 196.062 40.1734 196.062 40.4364C196.062 40.905 195.942 41.3533 195.701 41.7803C195.53 42.1009 195.284 42.2606 194.965 42.2606C194.802 42.2606 194.662 42.2073 194.545 42.1019C194.428 41.9944 194.354 41.8314 194.326 41.611C194.312 41.4768 194.28 41.3874 194.23 41.3448C194.172 41.2873 194.105 41.2585 194.028 41.2585C193.906 41.2585 193.793 41.2873 193.685 41.3448C193.5 41.4438 193.22 41.7218 192.842 42.1775C192.253 42.875 191.612 43.7781 190.924 44.8877C190.625 45.3573 190.368 45.8876 190.155 46.4775C189.858 47.2879 189.687 47.7756 189.645 47.9386L189.302 49.2835H187.672L189.645 42.6567C189.871 41.8889 189.985 41.3405 189.985 41.0136C189.985 40.8848 189.932 40.7783 189.825 40.6931C189.683 40.5802 189.496 40.5227 189.261 40.5227C189.111 40.5227 188.837 40.5546 188.439 40.6185L188.365 40.2245L188.364 40.2235Z" fill="#DDC69D"/>
<path d="M200.742 39.6248L198.632 47.1056C198.488 47.6114 198.417 47.9138 198.417 48.0139C198.417 48.1268 198.451 48.2205 198.519 48.2908C198.586 48.3622 198.667 48.3984 198.76 48.3984C198.866 48.3984 198.995 48.3409 199.144 48.228C199.549 47.9075 199.958 47.4517 200.371 46.8617L200.743 47.1067C200.259 47.8467 199.691 48.4686 199.037 48.9745C198.555 49.3514 198.092 49.5399 197.652 49.5399C197.36 49.5399 197.122 49.4526 196.938 49.278C196.753 49.1044 196.66 48.885 196.66 48.622C196.66 48.359 196.748 47.9213 196.928 47.3101L198.314 42.5298C198.541 41.746 198.654 41.2562 198.654 41.057C198.654 40.8994 198.6 40.7717 198.489 40.6716C198.379 40.5725 198.228 40.5225 198.036 40.5225C197.88 40.5225 197.556 40.5608 197.066 40.6396V40.2243L200.744 39.6258L200.742 39.6248ZM200.605 35.3887C200.903 35.3887 201.155 35.492 201.36 35.6986C201.567 35.9051 201.67 36.1564 201.67 36.4567C201.67 36.757 201.566 36.9998 201.356 37.2086C201.145 37.4194 200.895 37.5238 200.605 37.5238C200.314 37.5238 200.062 37.4194 199.851 37.2086C199.643 36.9998 199.536 36.7485 199.536 36.4567C199.536 36.165 199.64 35.9051 199.847 35.6986C200.051 35.492 200.305 35.3887 200.605 35.3887Z" fill="#DDC69D"/>
<path d="M210.223 46.9558C209.483 47.8449 208.737 48.4966 207.983 48.9141C207.23 49.3304 206.434 49.5392 205.595 49.5392C204.586 49.5392 203.799 49.2538 203.233 48.6851C202.668 48.1165 202.386 47.3519 202.386 46.3903C202.386 45.302 202.689 44.2318 203.297 43.1786C203.905 42.1254 204.723 41.2703 205.75 40.6112C206.778 39.9541 207.786 39.624 208.774 39.624C209.548 39.624 210.128 39.7859 210.511 40.1096C210.894 40.4333 211.087 40.8305 211.087 41.3002C211.087 41.741 210.953 42.118 210.681 42.4321C210.482 42.6728 210.238 42.7942 209.946 42.7942C209.726 42.7942 209.543 42.7228 209.398 42.5812C209.252 42.4396 209.179 42.2607 209.179 42.0466C209.179 41.9125 209.207 41.7879 209.259 41.6739C209.312 41.5589 209.422 41.4237 209.59 41.2629C209.756 41.1021 209.858 40.986 209.893 40.9157C209.929 40.8444 209.946 40.7698 209.946 40.691C209.946 40.5419 209.879 40.4174 209.744 40.3183C209.538 40.1746 209.246 40.1053 208.869 40.1053C208.172 40.1053 207.482 40.3503 206.801 40.8412C206.118 41.331 205.535 42.0285 205.051 42.9326C204.468 44.0273 204.177 45.1231 204.177 46.2189C204.177 46.9451 204.383 47.5191 204.795 47.9418C205.207 48.3657 205.77 48.5765 206.479 48.5765C207.026 48.5765 207.569 48.4402 208.105 48.1665C208.642 47.8918 209.245 47.3955 209.913 46.6767L210.223 46.9547V46.9558Z" fill="#DDC69D"/>
<path d="M217.729 34.1076L214.701 44.5978L215.917 43.5616C217.245 42.4382 218.11 41.6044 218.508 41.0645C218.635 40.8866 218.699 40.7525 218.699 40.6588C218.699 40.5938 218.678 40.5342 218.634 40.4767C218.592 40.4213 218.509 40.3734 218.384 40.3382C218.26 40.3042 218.042 40.285 217.729 40.285H217.355L217.472 39.8793H222.133L222.026 40.285C221.494 40.3137 221.032 40.3968 220.644 40.5352C220.258 40.6737 219.883 40.8792 219.52 41.1497C218.803 41.6821 218.33 42.0516 218.102 42.2582L217.185 43.0686C217.342 43.5819 217.533 44.2964 217.762 45.2143C218.146 46.7371 218.405 47.6391 218.539 47.9245C218.675 48.2099 218.812 48.3515 218.955 48.3515C219.075 48.3515 219.219 48.2919 219.381 48.1694C219.751 47.9 220.145 47.4687 220.564 46.8787L220.937 47.145C220.162 48.1204 219.569 48.7625 219.157 49.0714C218.745 49.3812 218.368 49.5356 218.028 49.5356C217.729 49.5356 217.498 49.4185 217.335 49.1832C217.05 48.7636 216.576 47.1088 215.917 44.2208L214.456 45.4901L213.358 49.279H211.694L215.235 37.1031L215.533 36.0691C215.569 35.8913 215.587 35.7337 215.587 35.5995C215.587 35.4291 215.521 35.2875 215.389 35.1725C215.257 35.0596 215.066 35.0021 214.82 35.0021C214.655 35.0021 214.396 35.0383 214.041 35.1086V34.7359L217.73 34.1055L217.729 34.1076Z" fill="#DDC69D"/>
<path d="M229.587 49.6143L230.834 37.5556C230.884 37.0923 230.909 36.7377 230.909 36.4885C230.909 36.0764 230.792 35.7634 230.556 35.5504C230.323 35.3374 229.9 35.2224 229.288 35.2075L229.405 34.8135H234.821L234.704 35.2075C233.98 35.2 233.485 35.331 233.217 35.5972C232.951 35.8635 232.768 36.5173 232.669 37.5556L231.869 45.3665L237.359 36.8836C237.367 36.742 237.371 36.6195 237.371 36.5215C237.371 36.1233 237.254 35.8166 237.019 35.6036C236.784 35.3906 236.279 35.2586 235.505 35.2085L235.591 34.8145H241.444L241.327 35.2085C240.652 35.216 240.198 35.2735 239.963 35.38C239.793 35.4577 239.648 35.5834 239.531 35.758C239.414 35.9327 239.319 36.2298 239.249 36.6493C239.228 36.7707 239.141 37.596 238.987 39.1252C238.834 40.6554 238.605 42.7362 238.3 45.3675L242.873 38.4096C243.371 37.6493 243.685 37.1147 243.812 36.8091C243.941 36.5024 244.004 36.2436 244.004 36.0296C244.004 35.8304 243.917 35.6547 243.749 35.5014C243.578 35.348 243.285 35.2511 242.873 35.2075L242.96 34.8135H247.247L247.139 35.2075C246.763 35.2362 246.43 35.3289 246.137 35.4854C245.844 35.642 245.502 35.9412 245.104 36.382C244.875 36.6387 244.407 37.3128 243.695 38.4085L236.434 49.6132H236.04L237.212 38.4085L229.951 49.6132H229.589L229.587 49.6143Z" fill="#DDC69D"/>
<path d="M252.92 42.9655C252.92 44.0326 252.637 45.0889 252.073 46.1346C251.508 47.1804 250.72 48.0099 249.71 48.6211C248.7 49.2324 247.72 49.5391 246.767 49.5391C245.815 49.5391 244.998 49.2281 244.384 48.6052C243.769 47.9822 243.46 47.1772 243.46 46.1889C243.46 45.1432 243.76 44.0933 244.361 43.0401C244.962 41.9869 245.766 41.1552 246.771 40.5429C247.776 39.9317 248.749 39.625 249.687 39.625C250.626 39.625 251.398 39.9349 252.006 40.5536C252.614 41.1733 252.918 41.9773 252.918 42.9655H252.92ZM251.15 42.2297C251.15 41.5684 250.987 41.0605 250.664 40.708C250.34 40.3566 249.924 40.1809 249.411 40.1809C248.367 40.1809 247.406 40.9284 246.527 42.4267C245.649 43.9239 245.209 45.4116 245.209 46.8918C245.209 47.568 245.38 48.0898 245.722 48.4561C246.063 48.8224 246.493 49.0045 247.012 49.0045C248.014 49.0045 248.954 48.2591 249.833 46.7693C250.711 45.2785 251.15 43.7653 251.15 42.2286V42.2297Z" fill="#DDC69D"/>
<path d="M254.88 40.2235L258.559 39.625L257.024 44.8121C258.268 42.6844 259.397 41.1978 260.416 40.3513C260.991 39.8667 261.461 39.625 261.822 39.625C262.057 39.625 262.242 39.6953 262.378 39.8337C262.512 39.9711 262.58 40.1734 262.58 40.4364C262.58 40.905 262.459 41.3533 262.218 41.7803C262.047 42.1009 261.802 42.2606 261.483 42.2606C261.32 42.2606 261.18 42.2073 261.063 42.1019C260.946 41.9944 260.871 41.8314 260.843 41.611C260.83 41.4768 260.797 41.3874 260.748 41.3448C260.69 41.2873 260.623 41.2585 260.544 41.2585C260.424 41.2585 260.309 41.2873 260.204 41.3448C260.018 41.4438 259.737 41.7218 259.361 42.1775C258.772 42.875 258.131 43.7781 257.441 44.8877C257.143 45.3573 256.887 45.8876 256.674 46.4775C256.376 47.2879 256.205 47.7756 256.161 47.9386L255.821 49.2835H254.188L256.161 42.6567C256.389 41.8889 256.504 41.3405 256.504 41.0136C256.504 40.8848 256.451 40.7783 256.343 40.6931C256.202 40.5802 256.012 40.5227 255.778 40.5227C255.629 40.5227 255.356 40.5546 254.958 40.6185L254.882 40.2245L254.88 40.2235Z" fill="#DDC69D"/>
<path d="M268.487 34.1076L265.458 44.5978L266.674 43.5616C268.002 42.4382 268.868 41.6044 269.266 41.0645C269.393 40.8866 269.457 40.7525 269.457 40.6588C269.457 40.5938 269.436 40.5342 269.392 40.4767C269.35 40.4213 269.267 40.3734 269.142 40.3382C269.018 40.3042 268.798 40.285 268.487 40.285H268.113L268.23 39.8793H272.89L272.783 40.285C272.251 40.3137 271.79 40.3968 271.402 40.5352C271.015 40.6737 270.639 40.8792 270.278 41.1497C269.56 41.6821 269.088 42.0516 268.859 42.2582L267.943 43.0686C268.099 43.5819 268.291 44.2964 268.519 45.2143C268.903 46.7371 269.162 47.6391 269.298 47.9245C269.432 48.2099 269.571 48.3515 269.712 48.3515C269.834 48.3515 269.976 48.2919 270.139 48.1694C270.508 47.9 270.903 47.4687 271.322 46.8787L271.696 47.145C270.921 48.1204 270.328 48.7625 269.916 49.0714C269.504 49.3812 269.127 49.5356 268.785 49.5356C268.487 49.5356 268.255 49.4185 268.092 49.1832C267.809 48.7636 267.334 47.1088 266.674 44.2208L265.213 45.4901L264.115 49.279H262.452L265.992 37.1031L266.29 36.0691C266.327 35.8913 266.344 35.7337 266.344 35.5995C266.344 35.4291 266.278 35.2875 266.148 35.1725C266.016 35.0596 265.825 35.0021 265.576 35.0021C265.414 35.0021 265.153 35.0383 264.797 35.1086V34.7359L268.488 34.1055L268.487 34.1076Z" fill="#DDC69D"/>
<path d="M288.492 44.4483H277.2V43.6709H288.492V44.4483Z" fill="#DDC69D"/>
</svg>
