<svg width="54" height="54" viewBox="0 0 54 54" fill="none" xmlns="http://www.w3.org/2000/svg">
<path d="M53.8114 0H0V53.8512H53.8114V0Z" fill="#B7BFC9"/>
<path d="M17.936 8.97559H8.96777V17.9504H17.936H26.9042V8.97559H17.936Z" fill="#4E647E"/>
<path d="M35.8725 8.97559H26.9043V17.9504H35.8725H44.8407V8.97559H35.8725Z" fill="#FAEDC0"/>
<path d="M17.936 17.9492H8.96777V26.9241H17.936H26.9042V17.9492H17.936Z" fill="#6E7B94"/>
<path d="M17.936 26.9258H8.96777V35.9006H17.936V26.9258Z" fill="#DDC69D"/>
<path d="M26.9038 26.9258H17.9355V35.9006H26.9038V26.9258Z" fill="#4E647E"/>
<path d="M35.8725 26.9258H26.9043V35.9006H35.8725V26.9258Z" fill="#DDC69D"/>
<path d="M17.936 35.8994H8.96777V44.8743H17.936H26.9042V35.8994H17.936Z" fill="#E9DBAA"/>
<path d="M35.8725 17.9492H26.9043V26.9241H35.8725V35.8989H26.9043V44.8738H35.8725H44.8407V35.8989V26.9241V17.9492H35.8725Z" fill="#4E647E"/>
<path d="M44.8398 26.9258V35.9006V44.8755H53.8081V35.9006V26.9258H44.8398Z" fill="#FAEDC0"/>
<path d="M44.8407 44.875H35.8725H26.9043V53.8498H35.8725H44.8407H53.809V44.875H44.8407Z" fill="#DDC69D"/>
</svg>
