<svg width="25" height="24" viewBox="0 0 25 24" fill="none" xmlns="http://www.w3.org/2000/svg">
<g id="mail">
<mask id="mask0_5860_2547" style="mask-type:alpha" maskUnits="userSpaceOnUse" x="0" y="0" width="25" height="24">
<rect id="Bounding box" x="0.25" width="24" height="24" fill="#D9D9D9"/>
</mask>
<g mask="url(#mask0_5860_2547)">
<path id="mail_2" d="M4.25 20C3.7 20 3.22917 19.8042 2.8375 19.4125C2.44583 19.0208 2.25 18.55 2.25 18V6C2.25 5.45 2.44583 4.97917 2.8375 4.5875C3.22917 4.19583 3.7 4 4.25 4H20.25C20.8 4 21.2708 4.19583 21.6625 4.5875C22.0542 4.97917 22.25 5.45 22.25 6V18C22.25 18.55 22.0542 19.0208 21.6625 19.4125C21.2708 19.8042 20.8 20 20.25 20H4.25ZM12.25 13L4.25 8V18H20.25V8L12.25 13ZM12.25 11L20.25 6H4.25L12.25 11ZM4.25 8V6V18V8Z" fill="#DDC69D"/>
</g>
</g>
</svg>
