<svg width="25" height="24" viewBox="0 0 25 24" fill="none" xmlns="http://www.w3.org/2000/svg">
<mask id="mask0_5825_3921" style="mask-type:alpha" maskUnits="userSpaceOnUse" x="0" y="0" width="25" height="24">
<rect x="0.25" width="24" height="24" fill="#D9D9D9"/>
</mask>
<g mask="url(#mask0_5825_3921)">
<path d="M20.2 21C18.1167 21 16.0583 20.5458 14.025 19.6375C11.9917 18.7292 10.1417 17.4417 8.475 15.775C6.80833 14.1083 5.52083 12.2583 4.6125 10.225C3.70417 8.19167 3.25 6.13333 3.25 4.05C3.25 3.75 3.35 3.5 3.55 3.3C3.75 3.1 4 3 4.3 3H8.35C8.58333 3 8.79167 3.07917 8.975 3.2375C9.15833 3.39583 9.26667 3.58333 9.3 3.8L9.95 7.3C9.98333 7.56667 9.975 7.79167 9.925 7.975C9.875 8.15833 9.78333 8.31667 9.65 8.45L7.225 10.9C7.55833 11.5167 7.95417 12.1125 8.4125 12.6875C8.87083 13.2625 9.375 13.8167 9.925 14.35C10.4417 14.8667 10.9833 15.3458 11.55 15.7875C12.1167 16.2292 12.7167 16.6333 13.35 17L15.7 14.65C15.85 14.5 16.0458 14.3875 16.2875 14.3125C16.5292 14.2375 16.7667 14.2167 17 14.25L20.45 14.95C20.6833 15.0167 20.875 15.1375 21.025 15.3125C21.175 15.4875 21.25 15.6833 21.25 15.9V19.95C21.25 20.25 21.15 20.5 20.95 20.7C20.75 20.9 20.5 21 20.2 21ZM6.275 9L7.925 7.35L7.5 5H5.275C5.35833 5.68333 5.475 6.35833 5.625 7.025C5.775 7.69167 5.99167 8.35 6.275 9ZM15.225 17.95C15.875 18.2333 16.5375 18.4583 17.2125 18.625C17.8875 18.7917 18.5667 18.9 19.25 18.95V16.75L16.9 16.275L15.225 17.95Z" fill="#DDC69D"/>
</g>
</svg>
